<svg xmlns="http://www.w3.org/2000/svg" viewBox="0 0 512 512">
  <defs>
    <linearGradient id="cyan" x1="0" y1="0" x2="1" y2="1"><stop offset="0" stop-color="#25E7FF"/><stop offset="1" stop-color="#1769FF"/></linearGradient>
    <linearGradient id="violet" x1="0" y1="0" x2="1" y2="1"><stop offset="0" stop-color="#B84CFF"/><stop offset="1" stop-color="#5B2CFF"/></linearGradient>
    <linearGradient id="gold" x1="0" y1="0" x2="1" y2="1"><stop offset="0" stop-color="#FFF4A3"/><stop offset=".5" stop-color="#FFC928"/><stop offset="1" stop-color="#E18A00"/></linearGradient>
  </defs>
  <rect width="512" height="512" rx="112" fill="#07132F"/>
  <rect x="10" y="10" width="492" height="492" rx="102" fill="none" stroke="#4D7CFF" stroke-width="8" opacity=".75"/>
  <path d="M126 178c0-38 31-69 69-69h55c38 0 69 31 69 69v82c0 38-31 69-69 69h-61l-44 37 12-50c-19-12-31-34-31-56z" fill="url(#cyan)"/>
  <path d="M194 246c0-38 31-69 69-69h55c38 0 69 31 69 69v82c0 38-31 69-69 69h-61l-44 37 12-50c-19-12-31-34-31-56z" fill="url(#violet)"/>
  <path d="M205 214h56c16 0 29 13 29 29s-13 29-29 29h-56c-16 0-29-13-29-29s13-29 29-29zm76 0h56c16 0 29 13 29 29s-13 29-29 29h-56c-16 0-29-13-29-29s13-29 29-29z" fill="#07132F" opacity=".95"/>
  <circle cx="237" cy="316" r="9" fill="#25E7FF"/><circle cx="270" cy="316" r="9" fill="#B84CFF"/><circle cx="303" cy="316" r="9" fill="#FFFFFF"/>
  <path d="M224 94l30 23 36-35 31 35 36-23-14 55H238z" fill="url(#gold)" stroke="#FFF1A8" stroke-width="4"/>
</svg>
